# Blender 4.5.3 LTS
# www.blender.org
mtllib floor.mtl
o Cylinder
v 0.000000 -0.100000 -12.000000
v 0.000000 0.100000 -12.000000
v 6.000000 -0.100000 -10.392304
v 6.000000 0.100000 -10.392304
v 10.392304 -0.100000 -6.000000
v 10.392304 0.100000 -6.000000
v 12.000000 -0.100000 0.000000
v 12.000000 0.100000 0.000000
v 10.392304 -0.100000 6.000000
v 10.392304 0.100000 6.000000
v 6.000000 -0.100000 10.392304
v 6.000000 0.100000 10.392304
v 0.000000 -0.100000 12.000000
v 0.000000 0.100000 12.000000
v -6.000000 -0.100000 10.392304
v -6.000000 0.100000 10.392304
v -10.392304 -0.100000 6.000000
v -10.392304 0.100000 6.000000
v -12.000000 -0.100000 0.000000
v -12.000000 0.100000 0.000000
v -10.392304 -0.100000 -6.000000
v -10.392304 0.100000 -6.000000
v -6.000000 -0.100000 -10.392304
v -6.000000 0.100000 -10.392304
vn 0.2588 -0.0000 -0.9659
vn 0.7071 -0.0000 -0.7071
vn 0.9659 -0.0000 -0.2588
vn 0.9659 -0.0000 0.2588
vn 0.7071 -0.0000 0.7071
vn 0.2588 -0.0000 0.9659
vn -0.2588 -0.0000 0.9659
vn -0.7071 -0.0000 0.7071
vn -0.9659 -0.0000 0.2588
vn -0.9659 -0.0000 -0.2588
vn -0.0000 1.0000 -0.0000
vn -0.7071 -0.0000 -0.7071
vn -0.2588 -0.0000 -0.9659
vn -0.0000 -1.0000 -0.0000
vt 0.504314 0.366025
vt 0.500000 0.366025
vt 0.500000 0.250000
vt 0.504314 0.250000
vt 0.500000 0.116025
vt 0.504314 0.116025
vt 0.500000 -0.000000
vt 0.504314 -0.000000
vt 0.504314 0.732051
vt 0.500000 0.732051
vt 0.500000 0.616025
vt 0.504314 0.616025
vt 0.500000 0.482051
vt 0.504314 0.482051
vt 0.500000 0.366025
vt 0.504314 0.366025
vt 0.508627 0.366025
vt 0.508627 0.250000
vt 0.508627 0.116025
vt 0.504314 -0.000000
vt 0.508627 -0.000000
vt 0.508627 0.732051
vt 0.504314 0.616025
vt 0.508627 0.616025
vt 0.066987 0.433013
vt -0.000000 0.316987
vt 0.000000 0.183013
vt 0.066987 0.066987
vt 0.183013 0.000000
vt 0.316987 0.000000
vt 0.433013 0.066987
vt 0.500000 0.183013
vt 0.500000 0.316987
vt 0.433013 0.433013
vt 0.316987 0.500000
vt 0.183013 0.500000
vt 0.504314 0.482051
vt 0.508627 0.482051
vt 0.508627 0.366025
vt 0.000000 0.816987
vt 0.000000 0.683013
vt 0.066987 0.566987
vt 0.433013 0.566987
vt 0.500000 0.683013
vt 0.500000 0.816987
vt 0.433013 0.933013
vt 0.316987 1.000000
vt 0.183013 1.000000
vt 0.066987 0.933013
s 0
f 1/1/1 2/2/1 4/3/1 3/4/1
f 3/4/2 4/3/2 6/5/2 5/6/2
f 5/6/3 6/5/3 8/7/3 7/8/3
f 7/9/4 8/10/4 10/11/4 9/12/4
f 9/12/5 10/11/5 12/13/5 11/14/5
f 11/14/6 12/13/6 14/15/6 13/16/6
f 13/17/7 14/1/7 16/4/7 15/18/7
f 15/18/8 16/4/8 18/6/8 17/19/8
f 17/19/9 18/6/9 20/20/9 19/21/9
f 19/22/10 20/9/10 22/23/10 21/24/10
f 4/25/11 2/26/11 24/27/11 22/28/11 20/29/11 18/30/11 16/31/11 14/32/11 12/33/11 10/34/11 8/35/11 6/36/11
f 21/24/12 22/23/12 24/37/12 23/38/12
f 23/38/13 24/37/13 2/16/13 1/39/13
f 1/40/14 3/41/14 5/42/14 7/36/14 9/35/14 11/43/14 13/44/14 15/45/14 17/46/14 19/47/14 21/48/14 23/49/14
